<svg width="275" height="32" viewBox="0 0 275 32" fill="none" xmlns="http://www.w3.org/2000/svg">
<path d="M79.94 24H76.04V6.58H81.318L85.4 15.16L87.038 19.242H87.324L88.91 15.16L92.862 6.58H98.166V24H94.266V15.16L94.396 12.43H94.11L93.096 15.16L89.456 22.96H84.724L81.084 15.16L80.07 12.43H79.784L79.94 15.16V24ZM104.216 24.26C101.408 24.26 99.7179 22.96 99.7179 20.776C99.7179 18.852 101.148 17.656 103.93 17.37L109.52 16.798V16.304C109.52 14.614 108.766 14.146 106.686 14.146C104.71 14.146 103.904 14.666 103.904 16.148V16.252H99.9779V16.174C99.9779 12.95 102.682 10.714 106.972 10.714C111.314 10.714 113.368 12.95 113.368 16.356V24H109.728V21.01H109.52C108.922 23.038 107.102 24.26 104.216 24.26ZM103.644 20.516C103.644 21.218 104.19 21.504 105.334 21.504C107.986 21.504 109.416 20.88 109.52 19.034L104.996 19.554C104.06 19.632 103.644 19.892 103.644 20.516ZM119.245 24H115.345V6.58H119.245V24ZM126.668 24.26C123.002 24.26 121.26 21.998 121.26 19.086V10.974H125.16V17.786C125.16 19.892 126.044 20.776 128.514 20.776C131.062 20.776 131.972 19.788 131.972 17.578V10.974H135.872V24H132.232V20.022H132.024C131.686 22.206 130.1 24.26 126.668 24.26ZM141.766 24H137.866V6.58H141.766V15.81H144.73L148.058 10.974H152.686L147.928 17.266L152.608 24H148.006L144.756 19.294H141.766V24ZM159.016 24.26C155.35 24.26 153.608 21.998 153.608 19.086V10.974H157.508V17.786C157.508 19.892 158.392 20.776 160.862 20.776C163.41 20.776 164.32 19.788 164.32 17.578V10.974H168.22V24H164.58V20.022H164.372C164.034 22.206 162.448 24.26 159.016 24.26ZM188.968 24H174.226V6.58H188.968V10.09H178.126V13.496H188.578V16.98H178.126V20.49H188.968V24ZM194.291 24H189.585L194.785 17.63V17.422L189.585 10.974H194.343L197.801 15.368H198.009L201.363 10.974H206.069L200.869 17.344V17.578L206.069 24H201.311L197.853 19.632H197.645L194.291 24ZM210.905 28.42H207.005V10.974H210.619V14.536H210.879C211.347 12.04 213.011 10.714 216.079 10.714C220.083 10.714 222.319 13.366 222.319 17.5C222.319 21.634 220.135 24.26 216.209 24.26C213.193 24.26 211.529 22.778 211.087 20.49H210.905V28.42ZM210.905 17.682C210.905 19.918 212.257 20.698 214.701 20.698C217.197 20.698 218.367 19.866 218.367 17.5C218.367 15.108 217.197 14.302 214.727 14.302C212.205 14.302 210.905 15.16 210.905 17.474V17.682ZM227.84 24H223.94V6.58H227.84V24ZM236.824 24.26C232.378 24.26 229.388 21.608 229.388 17.5C229.388 13.34 232.378 10.714 236.824 10.714C241.27 10.714 244.26 13.34 244.26 17.5C244.26 21.608 241.27 24.26 236.824 24.26ZM236.824 20.802C239.45 20.802 240.386 19.788 240.386 17.5C240.386 15.212 239.45 14.146 236.824 14.146C234.172 14.146 233.262 15.212 233.262 17.5C233.262 19.788 234.172 20.802 236.824 20.802ZM249.753 24H245.853V10.974H249.467V14.432H249.701C250.065 12.326 251.443 10.714 254.069 10.714C256.981 10.714 258.176 12.716 258.176 15.264V17.422H254.277V16.07C254.277 14.64 253.705 14.016 252.119 14.016C250.377 14.016 249.753 14.822 249.753 16.46V24ZM266.505 24.26C262.163 24.26 259.199 22.128 259.199 17.5C259.199 13.34 262.137 10.714 266.427 10.714C270.691 10.714 273.525 12.95 273.525 17.032C273.525 17.5 273.473 17.838 273.421 18.28H262.813C262.917 20.282 263.853 21.14 266.375 21.14C268.689 21.14 269.495 20.542 269.495 19.424V19.164H273.395V19.45C273.395 22.284 270.639 24.26 266.505 24.26ZM266.349 13.756C264.035 13.756 263.047 14.536 262.865 16.226H269.781C269.677 14.51 268.637 13.756 266.349 13.756Z" fill="black"/>
<path d="M48.9378 2.47944C49.4768 1.56284 50.4606 1 51.5239 1H64.3072C66.6272 1 68.0692 3.52066 66.8933 5.52056L53.3699 28.5206C52.8309 29.4372 51.8471 30 50.7838 30H38.0005C35.6805 30 34.2385 27.4793 35.4144 25.4794L48.9378 2.47944Z" fill="#005100"/>
<path d="M30.9891 2.47944C31.528 1.56284 32.5119 1 33.5752 1H40.9739C43.2939 1 44.7359 3.52066 43.56 5.52056L30.0365 28.5206C29.4976 29.4372 28.5137 30 27.4504 30H20.0518C17.7318 30 16.2898 27.4793 17.4657 25.4794L30.9891 2.47944Z" fill="#2A9235"/>
<path d="M16.6301 2.47944C17.1691 1.56284 18.1529 1 19.2162 1H23.0252C25.3451 1 26.7871 3.52066 25.6112 5.52056L12.0878 28.5206C11.5489 29.4372 10.565 30 9.50172 30H5.69279C3.3728 30 1.9308 27.4793 3.10669 25.4794L16.6301 2.47944Z" fill="#4CAF50"/>
</svg>
