<svg width="70" height="29" viewBox="0 0 70 29" fill="none" xmlns="http://www.w3.org/2000/svg">
<path d="M48.9378 1.47944C49.4768 0.562839 50.4606 0 51.5239 0H64.3072C66.6272 0 68.0692 2.52066 66.8933 4.52056L53.3699 27.5206C52.8309 28.4372 51.8471 29 50.7838 29H38.0005C35.6805 29 34.2385 26.4793 35.4144 24.4794L48.9378 1.47944Z" fill="#005100"/>
<path d="M30.9891 1.47944C31.528 0.562839 32.5119 0 33.5752 0H40.9739C43.2939 0 44.7359 2.52066 43.56 4.52056L30.0365 27.5206C29.4976 28.4372 28.5137 29 27.4504 29H20.0518C17.7318 29 16.2898 26.4793 17.4657 24.4794L30.9891 1.47944Z" fill="#2A9235"/>
<path d="M16.6301 1.47944C17.1691 0.562839 18.1529 0 19.2162 0H23.0252C25.3451 0 26.7871 2.52066 25.6112 4.52056L12.0878 27.5206C11.5489 28.4372 10.565 29 9.50172 29H5.69279C3.3728 29 1.9308 26.4793 3.10669 24.4794L16.6301 1.47944Z" fill="#4CAF50"/>
</svg>
